<svg xmlns="http://www.w3.org/2000/svg" viewBox="0 0 410.11 327.23"><defs><linearGradient id="linear-gradient" x1="22.92" x2="386.23" y1="212.3" y2="212.3" gradientUnits="userSpaceOnUse"><stop offset="0" stop-color="#d34a4a"/><stop offset="1" stop-color="#a52121"/></linearGradient><style>.cls-5{fill:#010101}</style></defs><g id="Layer_2" data-name="Layer 2"><g id="Layer_1-2" data-name="Layer 1"><path fill="#bebebe" d="M89.79 2V.32h225.54l-.29 2c-3.24 2.63-7.15 2.2-10.88 2.2q-101.39.09-202.78 0c-4.02 0-8.2.41-11.59-2.52z"/><path d="M77 325.93C53.85 318.84 29.7 311.75 6.4 305c-6-1.74-7.79-3.58-5.33-10.19 28.1-75.49 55.79-151.12 83.77-226.65a70.36 70.36 0 004.77-26.8c-.37-13.77.08-27.57.18-41.35Q199.18 0 308.58 0c2.15 0 4.3.25 6.46.39 0 5.68.52 11.41-.06 17-3.16 30.66 4.62 58.72 16.65 86.83 26.69 62.41 51.43 125.64 77.32 188.4 2.54 6.16.89 7.38-4.56 9.11-25.93 8.24-50.76 16.9-76.59 25.47"/><path fill="#f9f8e5" d="M297.21 130.33c0 34.62-.14 69.23.13 103.84 0 5.82-1.06 7.82-7.43 7.79q-87.62-.41-175.24-.05c-5.25 0-7.5-.66-7.48-6.81q.35-104.66.05-209.31c0-4.71.76-6.45 6.06-6.43q88.84.32 177.67 0c6 0 6.32 2.46 6.3 7.15-.13 34.59-.06 69.21-.06 103.82z"/><path fill="url(#linear-gradient)" d="M96.34 313.2a31.53 31.53 0 01-8.78-.91c-20.19-5.94-40.28-12.2-60.49-18.06-3.66-1.06-5-2.16-3.59-6q32.06-86.51 64-173.07a40.39 40.39 0 012-3.78c0 47.39.18 93.29-.18 139.19-.06 7.48 2 9.34 9.37 9.31q103.82-.44 207.64 0c7.2 0 9-1.81 8.92-9-.36-42.17-.18-84.35-.18-126.53v-8.7h1.53q34.3 84.35 68.67 168.67c2 4.76 1.13 6.46-3.64 8-20.32 6.4-40.55 13.09-60.76 19.8a29.58 29.58 0 01-9.57 1.16"/><path fill="#030303" d="M201.57 181.26c-20.25 0-40.51-.41-60.73.22-7.43.23-7.72-3.18-7.29-8.53.36-4.61-2.15-9.91 6.8-9.81q61.14.7 122.28 0c8.83-.11 6.73 4.94 7.06 9.74.37 5.44 0 8.8-7.38 8.59-20.24-.59-40.5-.21-60.74-.21z"/><path d="M202.46 74.67c-20.53 0-41.08-.36-61.6.19-7.62.2-6.74-4.12-6.43-8.63.29-4.18-2.59-9.69 6.2-9.6q61.6.6 123.21 0c8.13-.1 7 4.16 6.89 9-.12 4.58 1.64 9.51-6.67 9.27-20.52-.63-41.06-.23-61.6-.23zM200.89 128.76c-20.26 0-40.51-.18-60.77.12-5.22.08-6.84-1.21-6.69-6.59.32-11.39 0-11.39 11.59-11.39 39.16 0 78.33.29 117.48-.23 8.71-.12 6.9 4.74 7.17 9.62.3 5.29.38 8.91-7.22 8.68-20.5-.62-41.04-.21-61.56-.21z" class="cls-5"/></g></g></svg>